<?xml version="1.0" standalone="no"?>
<!DOCTYPE svg PUBLIC "-//W3C//DTD SVG 20010904//EN"
 "http://www.w3.org/TR/2001/REC-SVG-20010904/DTD/svg10.dtd">
<svg version="1.0" xmlns="http://www.w3.org/2000/svg"
 width="384.000000pt" height="384.000000pt" viewBox="0 0 384.000000 384.000000"
 preserveAspectRatio="xMidYMid meet">

<g transform="translate(0.000000,384.000000) scale(0.100000,-0.100000)"
fill="#000000" stroke="none">
<path d="M1600 3500 c-416 -79 -798 -339 -1034 -702 -132 -203 -226 -468 -243
-683 l-6 -70 253 3 252 3 -6 40 c-17 109 -18 157 -1 239 21 105 50 169 112
244 192 238 574 260 792 47 122 -119 183 -295 161 -466 -5 -38 -9 -78 -10 -87
0 -17 17 -18 225 -18 l225 0 2 716 c2 394 1 717 -2 719 -3 2 -47 10 -98 19
-133 23 -492 21 -622 -4z"/>
<path d="M2590 2710 l0 -660 465 0 465 0 0 24 c0 43 -40 238 -66 321 -24 78
-89 240 -104 260 -5 6 -20 33 -35 60 -15 28 -38 64 -51 82 -13 17 -24 35 -24
38 0 4 -30 44 -67 89 -113 137 -221 235 -361 330 -83 56 -192 116 -212 116 -7
0 -10 -214 -10 -660z"/>
<path d="M1231 2655 c-117 -33 -224 -122 -279 -232 -44 -86 -54 -174 -37 -308
16 -126 49 -221 118 -344 26 -46 47 -85 47 -88 0 -24 246 -353 264 -353 8 0
121 143 178 226 70 101 180 301 207 374 52 141 66 337 31 438 -42 120 -147
230 -260 273 -72 28 -197 34 -269 14z m189 -293 c38 -19 80 -88 80 -132 0 -14
-9 -44 -20 -67 -50 -111 -217 -113 -272 -3 -68 135 75 271 212 202z"/>
<path d="M330 1758 c0 -40 30 -200 51 -273 81 -282 217 -509 428 -715 92 -90
237 -199 334 -250 l57 -31 0 423 0 423 -71 95 c-39 52 -96 138 -127 190 -30
52 -65 110 -76 127 l-21 33 -287 0 -288 0 0 -22z"/>
<path d="M1768 1763 c-9 -10 -33 -49 -53 -88 -46 -84 -98 -164 -177 -267 l-58
-78 2 -477 3 -478 105 -24 c92 -21 131 -24 325 -24 193 -1 232 1 318 21 343
76 580 205 817 442 268 267 411 561 464 953 l5 37 -868 0 c-814 0 -869 -1
-883 -17z m873 -222 c30 -11 67 -34 82 -49 66 -69 60 -191 -13 -264 -33 -33
-35 -38 -19 -43 30 -10 78 -54 96 -88 10 -20 16 -56 15 -101 0 -59 -4 -74 -29
-109 -36 -52 -65 -72 -135 -97 -50 -17 -83 -20 -253 -20 l-195 0 0 393 c0 217
3 397 8 401 4 5 93 6 197 3 163 -4 198 -7 246 -26z"/>
<path d="M2390 1330 l0 -82 70 4 c82 4 120 30 120 83 0 57 -19 69 -109 73
l-81 4 0 -82z"/>
<path d="M2390 1015 l0 -95 69 0 c86 0 128 14 146 51 45 85 -14 139 -151 139
l-64 0 0 -95z"/>
</g>
</svg>
