<?xml version="1.0" standalone="no"?>
<!DOCTYPE svg PUBLIC "-//W3C//DTD SVG 20010904//EN"
 "http://www.w3.org/TR/2001/REC-SVG-20010904/DTD/svg10.dtd">
<svg version="1.0" xmlns="http://www.w3.org/2000/svg"
 width="480.000000pt" height="480.000000pt" viewBox="0 0 480.000000 480.000000"
 preserveAspectRatio="xMidYMid meet">

<g transform="translate(0.000000,480.000000) scale(0.100000,-0.100000)"
fill="#000000" stroke="none">
<path d="M2035 3900 c-577 -399 -651 -450 -800 -551 -305 -207 -555 -381 -559
-387 -5 -8 135 -211 146 -212 4 0 62 38 130 84 68 47 166 114 218 150 349 239
1097 753 1158 795 l73 51 227 -153 c125 -85 324 -219 442 -299 118 -79 328
-220 465 -313 138 -93 299 -202 359 -243 l109 -74 18 24 c10 12 44 61 76 107
57 83 57 83 36 100 -11 9 -103 72 -204 139 -308 207 -832 561 -1242 837 -158
107 -289 195 -290 194 -1 -1 -164 -113 -362 -249z"/>
<path d="M2340 3528 c-14 -6 -42 -17 -63 -26 -47 -19 -88 -71 -111 -137 -15
-46 -15 -53 0 -100 29 -89 66 -125 163 -159 42 -14 49 -13 134 17 15 5 45 30
66 54 106 120 56 288 -103 343 -33 11 -60 20 -60 19 -1 0 -12 -5 -26 -11z"/>
<path d="M1513 3010 c-210 -42 -289 -303 -138 -455 42 -42 106 -74 147 -75 14
0 40 -12 57 -26 39 -33 43 -89 9 -121 -20 -18 -40 -21 -132 -25 -109 -5 -109
-5 -139 -38 -24 -27 -28 -39 -23 -68 9 -60 31 -73 132 -79 159 -10 265 30 324
123 102 161 15 363 -173 404 -69 15 -97 42 -97 95 0 30 6 47 23 63 l23 22 880
-2 879 -3 3 -129 c3 -146 -5 -166 -63 -166 -48 0 -65 26 -65 98 0 53 -4 66
-28 93 -40 45 -95 44 -135 -2 -29 -31 -29 -35 -24 -107 8 -101 45 -175 108
-217 l46 -30 5 -93 c4 -83 7 -95 30 -118 35 -36 91 -36 126 0 23 23 26 35 30
118 l5 93 46 30 c33 22 54 46 75 89 28 54 31 68 34 189 6 172 -6 226 -62 282
-29 28 -57 45 -88 53 -55 14 -1746 15 -1815 2z"/>
<path d="M1925 2740 c-50 -20 -63 -77 -26 -113 19 -19 35 -22 126 -25 58 -2
105 -8 105 -13 0 -8 -116 -163 -151 -202 -43 -48 -92 -131 -92 -157 0 -40 28
-79 70 -97 28 -11 70 -14 184 -11 136 3 150 5 170 25 27 27 27 69 0 96 -19 19
-35 22 -126 25 -71 3 -105 8 -105 15 0 7 24 42 53 78 183 230 191 242 191 275
0 42 -28 83 -69 100 -38 16 -294 19 -330 4z"/>
<path d="M2595 2745 c-5 -2 -22 -6 -37 -9 -35 -8 -94 -59 -115 -100 -19 -37
-21 -122 -3 -156 18 -36 61 -79 94 -97 16 -8 67 -18 115 -21 l86 -7 0 -40 0
-40 -132 -5 c-119 -4 -135 -7 -154 -27 -27 -27 -27 -69 0 -96 20 -20 32 -22
149 -22 148 0 169 5 217 47 49 42 68 83 68 143 0 56 -12 85 -52 128 -41 45
-77 58 -170 65 l-86 7 0 40 0 40 132 5 c119 4 135 7 154 27 27 27 27 69 0 96
-19 20 -34 22 -139 24 -64 1 -121 1 -127 -2z"/>
<path d="M1290 1555 c0 -510 -2 -531 -71 -609 -22 -24 -39 -47 -39 -51 0 -4
29 -63 65 -130 l66 -123 67 30 c129 59 201 80 474 138 79 17 159 34 178 39 19
5 100 21 180 36 80 15 154 30 166 35 19 7 22 21 31 137 6 70 9 129 8 131 -2 2
-155 -30 -342 -72 -186 -41 -380 -83 -430 -94 l-93 -20 0 379 0 379 900 0 900
0 0 115 0 115 -908 0 c-500 0 -964 3 -1030 7 l-122 6 0 -448z"/>
<path d="M3542 1736 c-129 -70 -394 -193 -601 -280 l-134 -57 -41 17 c-88 35
-725 274 -732 274 -5 0 -126 -212 -122 -215 1 -1 53 -21 113 -43 384 -141 878
-343 1429 -584 175 -77 322 -136 326 -131 13 13 132 235 128 238 -2 1 -48 22
-103 45 -55 23 -113 47 -130 54 -30 13 -308 126 -455 185 -41 16 -74 33 -73
38 0 4 52 29 115 56 62 26 127 54 144 62 16 8 59 27 95 43 35 17 108 50 162
76 l97 46 -76 105 c-42 58 -77 105 -78 105 0 0 -29 -16 -64 -34z"/>
</g>
</svg>
