<?xml version="1.0" standalone="no"?>
<!DOCTYPE svg PUBLIC "-//W3C//DTD SVG 20010904//EN"
 "http://www.w3.org/TR/2001/REC-SVG-20010904/DTD/svg10.dtd">
<svg version="1.0" xmlns="http://www.w3.org/2000/svg"
 width="1200.000000pt" height="1200.000000pt" viewBox="0 0 1200.000000 1200.000000"
 preserveAspectRatio="xMidYMid meet">

<g transform="translate(0.000000,1200.000000) scale(0.100000,-0.100000)"
fill="#000000" stroke="none">
<path d="M5660 10989 c-388 -26 -817 -109 -1195 -229 -451 -144 -960 -400
-1357 -682 -959 -680 -1651 -1683 -1948 -2823 -266 -1021 -198 -2109 193
-3100 313 -793 851 -1520 1525 -2061 455 -364 1041 -679 1587 -854 802 -256
1662 -307 2485 -149 881 170 1720 587 2387 1186 132 119 363 353 363 367 0 6
-754 765 -1675 1686 l-1675 1675 1677 1677 1676 1677 -82 88 c-155 166 -422
404 -616 550 -434 325 -971 604 -1470 762 -603 192 -1251 272 -1875 230z m640
-499 c974 -69 1875 -435 2620 -1066 38 -32 70 -61 70 -64 0 -3 -238 -243 -528
-533 l-529 -529 -119 90 c-1203 908 -2872 794 -3934 -268 -799 -799 -1081
-1972 -733 -3045 107 -328 253 -609 465 -889 l90 -119 -529 -529 c-290 -290
-531 -527 -535 -526 -3 2 -46 50 -94 108 -474 568 -801 1243 -949 1962 -349
1691 288 3417 1651 4476 401 312 873 561 1367 723 525 172 1133 247 1687 209z
m45 -2014 c378 -56 731 -191 1035 -394 74 -50 149 -102 165 -116 l30 -25
-1758 -1758 -1758 -1758 -25 30 c-14 17 -66 91 -116 165 -208 311 -345 677
-399 1070 -18 124 -18 496 0 620 64 466 247 896 531 1255 81 103 282 304 385
385 360 285 821 480 1255 529 52 6 109 13 125 15 63 9 435 -4 530 -18z m2642
-5842 c-6 -6 -56 -48 -111 -94 -1193 -994 -2824 -1301 -4296 -810 -96 32 -193
66 -214 75 l-39 17 1374 1374 1374 1374 962 -962 c744 -744 960 -965 950 -974z"/>
</g>
</svg>
