<?xml version="1.0" standalone="no"?>
<!DOCTYPE svg PUBLIC "-//W3C//DTD SVG 20010904//EN"
 "http://www.w3.org/TR/2001/REC-SVG-20010904/DTD/svg10.dtd">
<svg version="1.0" xmlns="http://www.w3.org/2000/svg"
 width="480.000000pt" height="480.000000pt" viewBox="0 0 480.000000 480.000000"
 preserveAspectRatio="xMidYMid meet">

<g transform="translate(0.000000,480.000000) scale(0.100000,-0.100000)"
fill="#000000" stroke="none">
<path d="M3950 4300 l0 -150 150 0 150 0 0 150 0 150 -150 0 -150 0 0 -150z"/>
<path d="M2700 4100 l0 -300 300 0 300 0 0 300 0 300 -300 0 -300 0 0 -300z"/>
<path d="M3500 4250 l0 -150 150 0 150 0 0 150 0 150 -150 0 -150 0 0 -150z"/>
<path d="M789 4310 c-96 -16 -158 -64 -179 -138 -6 -25 -10 -612 -10 -1782 0
-1671 1 -1747 19 -1785 23 -51 69 -91 124 -107 25 -8 99 -13 187 -12 142 0
156 2 710 107 l565 107 698 -44 c779 -49 758 -50 834 17 67 59 63 -1 63 1062
l0 965 -231 0 c-181 0 -230 -3 -226 -12 57 -129 59 -139 55 -242 -3 -84 -9
-111 -31 -157 l-27 -56 27 -59 c26 -54 28 -69 28 -174 0 -108 -2 -119 -31
-181 -30 -62 -84 -128 -131 -161 -16 -10 -26 -31 -33 -68 -23 -124 -101 -231
-209 -289 -32 -17 -66 -31 -74 -31 -8 0 -32 -23 -52 -50 -47 -64 -111 -113
-183 -142 -80 -31 -224 -31 -302 0 -69 28 -145 83 -169 123 l-19 31 -23 -32
c-36 -47 -129 -105 -203 -125 -156 -42 -349 26 -426 149 -15 26 -43 45 -104
75 -129 62 -218 178 -233 300 -5 42 -11 53 -44 78 -53 41 -96 97 -127 163 -22
47 -26 69 -26 155 -1 92 1 105 31 168 l32 67 -32 68 c-29 61 -32 75 -32 167 0
94 2 105 33 168 31 62 34 77 35 166 2 91 4 102 40 173 26 53 54 92 91 125 47
43 54 55 70 118 43 179 182 302 354 313 l77 5 61 66 c86 93 151 124 267 129
74 3 93 1 127 -17 22 -11 40 -16 40 -10 0 35 184 53 263 25 l37 -14 0 205 0
205 -62 -6 c-232 -21 -194 -25 -743 79 -377 71 -554 99 -680 110 -93 8 -172
14 -175 14 -3 -1 -26 -5 -51 -9z"/>
<path d="M3500 3850 l0 -150 150 0 150 0 0 150 0 150 -150 0 -150 0 0 -150z"/>
<path d="M3900 3850 l0 -150 150 0 150 0 0 150 0 150 -150 0 -150 0 0 -150z"/>
<path d="M2013 3589 c-51 -10 -69 -19 -121 -62 l-41 -35 25 -23 c30 -28 32
-71 4 -99 -25 -25 -56 -25 -111 0 -62 28 -150 26 -215 -4 -53 -25 -116 -90
-132 -136 l-10 -28 76 -4 c100 -7 178 -37 243 -96 56 -50 109 -125 109 -153 0
-29 -39 -69 -69 -69 -33 0 -51 14 -80 63 -46 76 -155 125 -251 114 -164 -20
-272 -193 -216 -349 13 -35 12 -38 -12 -60 -62 -57 -88 -176 -60 -272 18 -61
101 -140 168 -160 30 -9 66 -16 80 -16 33 0 70 -38 70 -71 0 -14 -11 -36 -25
-49 -22 -21 -30 -22 -87 -16 -36 3 -89 19 -126 36 l-63 29 -11 -27 c-22 -53
-22 -155 0 -204 28 -65 76 -114 135 -138 l52 -22 -3 -55 c-6 -85 14 -139 72
-199 39 -40 64 -56 105 -68 30 -9 62 -16 71 -16 9 0 25 -19 37 -43 50 -104
125 -152 238 -152 60 0 78 5 125 31 66 37 113 101 129 174 7 34 11 257 11 650
l0 600 -75 0 c-67 0 -79 3 -100 25 -30 30 -31 54 -4 89 19 24 26 26 100 26
l79 0 0 374 c0 342 -2 376 -17 394 -23 26 -48 32 -100 21z m-469 -835 c9 -3
31 -39 50 -79 57 -118 137 -162 273 -152 70 5 77 4 99 -18 38 -38 28 -87 -21
-112 -33 -17 -118 -24 -170 -14 -46 9 -51 8 -65 -12 -65 -94 -112 -117 -157
-75 -32 30 -30 70 7 111 17 19 30 38 30 42 0 3 -20 26 -44 51 -49 49 -106 153
-106 193 0 56 49 86 104 65z m351 -629 c27 -26 32 -60 12 -86 -7 -9 -35 -28
-63 -42 -89 -45 -144 -129 -144 -218 0 -30 5 -37 47 -59 136 -72 240 -258 174
-311 -49 -40 -87 -21 -129 64 -51 103 -123 147 -242 147 -62 0 -74 3 -95 25
-14 13 -25 33 -25 43 0 34 37 70 79 77 38 6 39 7 50 65 25 125 100 228 211
289 67 37 93 38 125 6z"/>
<path d="M2700 3250 l0 -350 350 0 350 0 0 350 0 350 -350 0 -350 0 0 -350z"/>
<path d="M2303 3575 c-22 -16 -23 -21 -23 -191 l0 -174 79 0 c74 0 81 -2 100
-26 26 -33 27 -75 2 -105 -17 -21 -30 -24 -100 -27 l-81 -4 0 -519 0 -519 78
0 c87 0 107 -11 118 -66 4 -21 0 -37 -16 -57 -20 -25 -26 -27 -101 -27 l-79 0
0 -227 c0 -199 3 -233 19 -268 41 -92 152 -161 244 -153 95 8 180 68 218 154
17 38 23 42 64 47 57 8 112 36 151 79 54 57 69 95 69 178 l0 75 58 29 c98 48
158 157 143 260 -11 74 -21 80 -91 52 -143 -57 -235 -38 -235 48 0 45 34 73
95 79 66 7 131 42 174 94 33 40 61 110 61 153 0 50 -30 126 -65 167 -19 23
-35 48 -35 57 0 13 -13 16 -70 16 -48 0 -70 -4 -70 -12 0 -7 -21 -33 -46 -59
l-46 -47 26 -35 c53 -69 27 -147 -49 -147 -39 0 -64 18 -100 70 l-29 42 -53
-7 c-80 -10 -162 3 -190 31 -31 31 -31 83 1 113 22 21 30 22 102 16 66 -5 85
-2 119 14 l40 19 -142 1 -143 1 0 413 0 414 -52 26 c-72 35 -117 42 -145 22z
m344 -1346 c108 -52 206 -188 220 -306 6 -52 6 -53 40 -53 67 0 105 -71 64
-121 -16 -20 -28 -23 -97 -24 -123 -2 -203 -54 -251 -163 -32 -72 -75 -87
-125 -44 -61 52 51 241 183 307 55 29 59 40 34 121 -20 67 -66 119 -136 155
-79 40 -95 80 -51 132 20 23 66 22 119 -4z"/>
<path d="M3600 3200 l0 -300 300 0 300 0 0 300 0 300 -300 0 -300 0 0 -300z"/>
</g>
</svg>
