<?xml version="1.0" standalone="no"?>
<!DOCTYPE svg PUBLIC "-//W3C//DTD SVG 20010904//EN"
 "http://www.w3.org/TR/2001/REC-SVG-20010904/DTD/svg10.dtd">
<svg version="1.0" xmlns="http://www.w3.org/2000/svg"
 width="1000.000000pt" height="1000.000000pt" viewBox="0 0 1000.000000 1000.000000"
 preserveAspectRatio="xMidYMid meet">

<g transform="translate(0.000000,1000.000000) scale(0.100000,-0.100000)"
fill="#000000" stroke="none">
<path d="M4355 8585 c-352 -261 -641 -478 -643 -483 -1 -5 288 -223 643 -485
l645 -477 645 476 c355 262 645 480 645 484 0 7 -1275 953 -1289 957 -3 1
-294 -212 -646 -472z"/>
<path d="M1250 5602 l0 -2500 1868 -1078 c1027 -593 1874 -1078 1882 -1078 8
0 855 485 1883 1078 l1867 1078 0 1500 c0 824 -3 1497 -7 1495 -5 -2 -848
-489 -1875 -1082 l-1868 -1077 0 -500 0 -500 43 24 c99 56 2914 1682 2935
1696 l22 14 -2 -502 -3 -503 -1495 -864 c-822 -474 -1497 -863 -1500 -863 -3
0 -678 389 -1500 863 l-1495 864 -3 1502 -2 1503 22 -14 c93 -60 2966 -1712
2978 -1712 8 0 855 485 1883 1078 l1867 1078 0 500 0 500 -42 -24 c-24 -13
-864 -498 -1868 -1078 -1004 -580 -1832 -1054 -1840 -1054 -8 0 -836 474
-1840 1054 -1004 580 -1844 1065 -1867 1078 l-43 24 0 -2500z"/>
</g>
</svg>
