<svg xmlns="http://www.w3.org/2000/svg" width="360" height="360" viewBox="0 0 3600 3600">
  <defs>
    <style>
      .cls-1 {
        fill-rule: evenodd;
      }
    </style>
  </defs>
  <path id="main" class="cls-1" d="M3214.21,1800l-424.26,424.26-461.31-197.7c82.64-192.99,54.77-421.99-83.59-590.69l-96.75,79.16h0L1800,1800l426.97-142.32c52.04,156.52,15.8,335.95-108.77,460.52-175.74,175.73-460.66,175.73-636.4,0s-175.73-460.66,0-636.4c154.37-154.37,392.99-173.11,567.85-56.27l316.04-474.058L2577.82,1163.6h0Zm-1820.8-406.59a578.2,578.2,0,0,0-71.92,87.58L951.472,1234.31,1234.31,951.472l243.96,243.948L1375.74,810.05,1800,385.786,2224.26,810.05l-197.7,461.31C1816.84,1181.56,1564.59,1222.24,1393.41,1393.41Zm0,813.18a578.2,578.2,0,0,0,87.58,71.92l-246.68,370.02L951.472,2365.69l243.948-243.96L810.05,2224.26,385.786,1800,810.05,1375.74l461.31,197.7C1181.56,1783.16,1222.24,2035.41,1393.41,2206.59Zm813.18,0a578.2,578.2,0,0,0,71.92-87.58l370.02,246.68-282.84,282.84-243.96-243.95,102.53,385.37L1800,3214.21l-424.26-424.26,197.7-461.31C1783.16,2418.44,2035.41,2377.76,2206.59,2206.59Z"/>
</svg>
