<svg xmlns="http://www.w3.org/2000/svg" width="240" height="240" viewBox="0 0 240 240">
  <defs>
    <style>
      .cls-1 {
        fill-rule: evenodd;
      }
    </style>
  </defs>
  <path id="矩形_7_拷贝" data-name="矩形 7 拷贝" class="cls-1" d="M170,190H70a30,30,0,0,1-30-30V100A30,30,0,0,1,70,70h5.858L62.929,57.071,77.071,42.929,104.142,70h31.716l27.071-27.071,14.142,14.142L164.142,70H170a30,30,0,0,1,30,30v60A30,30,0,0,1,170,190Zm10-90a10,10,0,0,0-10-10H70a10,10,0,0,0-10,10v60a10,10,0,0,0,10,10H170a10,10,0,0,0,10-10V100Zm-40,10h20v30H140V110Zm-60,0h20v30H80V110Z"/>
</svg>
