<svg xmlns="http://www.w3.org/2000/svg" width="800" height="800" viewBox="0 0 800 800">
  <defs>
    <style>
      .cls-1 {
        fill-rule: evenodd;
      }
    </style>
  </defs>
  <path id="logo" class="cls-1" d="M591.923,137.721A323.512,323.512,0,0,0,400,75C232.893,75,95.268,201.126,77.066,363.372,77.033,364.245,77,365.119,77,366a74.979,74.979,0,0,0,126.312,54.673l0.467,0.515,143.7-143.7,53.033,53.033L84.778,646.255A400.346,400.346,0,0,1,43.463,581.5l0.02-.02a398.027,398.027,0,0,1-20.348-47.178c-0.161-.451-0.318-0.9-0.477-1.355q-1.524-4.322-2.949-8.688c-0.242-.74-0.484-1.48-0.721-2.222q-1.142-3.566-2.215-7.162c-0.336-1.123-.676-2.244-1-3.371q-0.64-2.2-1.251-4.423-0.556-2.007-1.089-4.023-0.777-2.919-1.511-5.855-0.549-2.2-1.076-4.409c-0.288-1.21-.579-2.418-0.856-3.632q-0.781-3.43-1.5-6.887-0.352-1.68-.689-3.367c-0.484-2.42-.955-4.845-1.395-7.281-0.16-.882-0.307-1.768-0.461-2.652q-0.556-3.2-1.064-6.419c-0.12-.763-0.247-1.523-0.362-2.287q-0.6-3.991-1.121-8.013-0.161-1.229-.315-2.459-0.51-4.1-.941-8.231c-0.066-.639-0.124-1.279-0.187-1.918q-0.4-4.047-.721-8.116c-0.026-.334-0.058-0.667-0.083-1-0.223-2.954-.4-5.92-0.563-8.891-0.033-.615-0.067-1.23-0.1-1.846q-0.215-4.4-.336-8.832c-0.015-.549-0.025-1.1-0.037-1.648C0.047,406.219,0,403.115,0,400,0,179.086,179.086,0,400,0c3.2,0,6.394.046,9.578,0.121,1.026,0.024,2.047.066,3.071,0.1,2.167,0.067,4.332.145,6.491,0.247,1.19,0.056,2.378.123,3.565,0.189q3.018,0.169,6.024.382c1.2,0.086,2.408.172,3.61,0.268,2.057,0.165,4.108.351,6.156,0.547,1.1,0.1,2.2.2,3.3,0.315q3.861,0.4,7.7.88c0.544,0.067,1.091.122,1.634,0.191q4.561,0.582,9.089,1.272c1.093,0.165,2.178.349,3.268,0.523,1.966,0.314,3.929.633,5.886,0.975,1.274,0.223,2.544.458,3.814,0.693q2.656,0.491,5.3,1.016,1.977,0.393,3.947.8c1.734,0.363,3.461.743,5.186,1.129,1.292,0.289,2.586.572,3.874,0.874,1.87,0.438,3.729.9,5.589,1.364,1.114,0.278,2.233.541,3.343,0.828q4.181,1.081,8.323,2.252c1.35,0.381,2.69.785,4.035,1.18,1.546,0.454,3.094.906,4.633,1.378,1.462,0.448,2.917.913,4.371,1.378q2.1,0.672,4.2,1.363,2.253,0.747,4.494,1.519c1.323,0.456,2.641.924,3.957,1.394,1.531,0.547,3.063,1.092,4.585,1.656,1.22,0.452,2.432.922,3.646,1.386q8.79,3.358,17.379,7.112c0.979,0.428,1.962.849,2.938,1.285,1.677,0.75,3.344,1.519,5.01,2.291,0.994,0.461,1.987.921,2.977,1.39q2.513,1.191,5.007,2.415,1.392,0.683,2.776,1.379c1.719,0.861,3.436,1.725,5.141,2.61,0.725,0.376,1.444.763,2.167,1.143q9.407,4.954,18.517,10.383c0.4,0.238.8,0.47,1.2,0.709,1.819,1.094,3.624,2.21,5.425,3.333,0.655,0.408,1.311.814,1.964,1.226q2.625,1.657,5.223,3.355,0.971,0.634,1.936,1.275,2.655,1.756,5.284,3.547c0.46,0.315.915,0.636,1.374,0.952q9.439,6.518,18.487,13.547h0ZM731.27,175.763c0.846,1.248,1.673,2.509,2.5,3.767,0.682,1.031,1.366,2.06,2.039,3.1q1.291,1.99,2.557,4,1,1.588,1.99,3.189c0.823,1.33,1.648,2.658,2.456,4,0.755,1.254,1.493,2.519,2.235,3.781q1.887,3.212,3.717,6.459c0.662,1.177,1.326,2.354,1.978,3.538q1.094,1.99,2.163,4,0.966,1.8,1.91,3.62c0.683,1.307,1.367,2.614,2.035,3.929,0.826,1.626,1.632,3.262,2.435,4.9q1.341,2.733,2.64,5.489c0.659,1.4,1.319,2.8,1.963,4.2q0.88,1.926,1.738,3.864,0.927,2.084,1.829,4.181c0.537,1.243,1.076,2.485,1.6,3.735q1.281,3.059,2.51,6.144c0.563,1.408,1.112,2.823,1.659,4.239,0.648,1.678,1.292,3.358,1.918,5.046q0.673,1.815,1.325,3.639,0.863,2.4,1.7,4.813c0.4,1.156.8,2.31,1.191,3.471q1.22,3.64,2.373,7.311c0.307,0.977.6,1.959,0.9,2.939q0.912,2.991,1.784,6c0.323,1.122.636,2.247,0.95,3.373q0.756,2.715,1.474,5.447c0.28,1.064.564,2.127,0.835,3.195,0.7,2.746,1.377,5.5,2.018,8.269,0.135,0.584.257,1.174,0.39,1.759q0.789,3.481,1.52,6.984c0.216,1.035.422,2.075,0.63,3.113q0.6,3,1.154,6.023c0.181,0.986.366,1.971,0.54,2.959,0.508,2.89,1,5.788,1.441,8.7,0.054,0.353.1,0.709,0.152,1.062q0.594,3.95,1.109,7.923c0.126,0.968.243,1.938,0.362,2.908q0.4,3.235.741,6.485c0.1,0.935.2,1.869,0.295,2.806,0.3,3.008.572,6.021,0.8,9.048,0.012,0.151.019,0.3,0.031,0.454q0.326,4.351.553,8.733c0.05,0.93.09,1.863,0.133,2.795q0.158,3.387.258,6.789c0.028,0.923.058,1.845,0.079,2.769,0.071,3.089.118,6.184,0.118,9.289v0.02c0,3.2-.046,6.385-0.121,9.565-0.024,1.025-.066,2.047-0.1,3.071-0.067,2.169-.145,4.337-0.247,6.5-0.056,1.183-.122,2.363-0.188,3.544q-0.17,3.037-.384,6.065c-0.085,1.186-.17,2.373-0.265,3.557-0.167,2.093-.357,4.181-0.556,6.265-0.1,1.059-.194,2.12-0.3,3.176q-0.421,4.059-.925,8.092c-0.051.41-.092,0.823-0.144,1.232q-0.59,4.62-1.288,9.2c-0.147.975-.312,1.943-0.467,2.915-0.333,2.1-.675,4.2-1.041,6.286-0.2,1.163-.419,2.322-0.633,3.482q-0.528,2.867-1.1,5.72-0.356,1.78-.723,3.555-0.6,2.889-1.255,5.762c-0.248,1.1-.489,2.21-0.746,3.31q-0.8,3.414-1.66,6.8c-0.18.711-.346,1.426-0.529,2.135q-1.128,4.37-2.354,8.7c-0.273.968-.565,1.928-0.846,2.893-0.569,1.959-1.145,3.916-1.743,5.863-0.36,1.17-.733,2.335-1.1,3.5q-0.831,2.616-1.694,5.216-0.6,1.809-1.22,3.612-0.885,2.576-1.808,5.133c-0.417,1.161-.83,2.324-1.257,3.481-0.7,1.886-1.418,3.761-2.143,5.634-0.365.945-.718,1.9-1.091,2.837q-1.606,4.06-3.3,8.077c-0.426,1.01-.871,2.01-1.3,3.016-0.752,1.746-1.508,3.49-2.284,5.222-0.537,1.2-1.088,2.388-1.637,3.58q-1.057,2.3-2.141,4.585-0.879,1.849-1.779,3.69-1.086,2.223-2.2,4.429c-0.612,1.215-1.222,2.43-1.846,3.638-0.792,1.533-1.6,3.055-2.415,4.577-0.6,1.115-1.179,2.236-1.784,3.344q-2.022,3.707-4.117,7.366c-0.627,1.093-1.276,2.173-1.913,3.26-0.86,1.468-1.719,2.938-2.6,4.394-0.741,1.228-1.5,2.446-2.251,3.665q-1.2,1.948-2.425,3.886-1.189,1.875-2.4,3.735t-2.447,3.717c-0.827,1.243-1.655,2.485-2.5,3.718s-1.69,2.446-2.541,3.665-1.683,2.426-2.541,3.627c-0.991,1.386-2,2.755-3.011,4.127q-2.232,3.042-4.52,6.037a402.212,402.212,0,0,1-93.64,88.632l-0.012.008L570.236,676.88c0.052-.032.1-0.066,0.157-0.1l-134.91-134.91,88.389-88.389L662.3,591.907A323.474,323.474,0,0,0,725,400a326.762,326.762,0,0,0-4.971-56.91,74.953,74.953,0,0,0-117.058-39.028L175.76,731.273a401.907,401.907,0,0,1-58.113-47.953l512.64-512.64c-0.1-.1-0.2-0.208-0.3-0.31l53.033-53.033c0.1,0.1.2,0.208,0.3,0.31h0a401.907,401.907,0,0,1,47.953,58.113Z"/>
</svg>
