<?xml version="1.0" standalone="no"?>
<!DOCTYPE svg PUBLIC "-//W3C//DTD SVG 20010904//EN"
 "http://www.w3.org/TR/2001/REC-SVG-20010904/DTD/svg10.dtd">
<svg version="1.0" xmlns="http://www.w3.org/2000/svg"
 width="1050.000000pt" height="1050.000000pt" viewBox="0 0 1050.000000 1050.000000"
 preserveAspectRatio="xMidYMid meet">

<g transform="translate(0.000000,1050.000000) scale(0.100000,-0.100000)"
fill="#000000" stroke="none">
<path d="M3333 8887 c-117 -117 -213 -219 -213 -227 0 -8 192 -207 426 -441
l427 -427 213 214 c118 117 214 219 214 226 0 7 -192 205 -427 440 l-428 427
-212 -212z"/>
<path d="M6527 8672 c-235 -235 -427 -432 -427 -437 0 -5 97 -107 216 -226
l216 -216 429 428 c236 236 429 432 429 437 0 4 -98 105 -218 225 l-217 217
-428 -428z"/>
<path d="M1631 8882 c-116 -115 -211 -214 -211 -219 0 -4 384 -392 854 -862
l854 -853 211 211 c116 116 211 214 211 218 0 5 -384 392 -854 862 l-854 854
-211 -211z"/>
<path d="M7808 8242 c-467 -466 -848 -854 -848 -863 0 -15 416 -436 424 -429
81 75 1696 1698 1696 1705 0 6 -96 106 -212 222 l-213 213 -847 -848z"/>
<path d="M3758 6752 c-819 -818 -1488 -1492 -1488 -1497 0 -6 671 -681 1492
-1502 l1492 -1492 1488 1488 c818 818 1488 1494 1488 1502 0 12 -2968 2989
-2980 2989 -3 0 -674 -670 -1492 -1488z m1709 -2 c-115 -116 -212 -210 -216
-210 -3 0 -99 93 -213 207 l-207 207 212 213 212 213 210 -211 211 -210 -209
-209z m-657 -651 c0 -6 -337 -347 -389 -393 l-22 -20 -209 209 -209 209 207
208 207 208 208 -208 c114 -114 207 -210 207 -213z m1502 -201 l-212 -213
-207 207 -206 207 212 212 213 212 207 -207 206 -206 -213 -212z m-2549 -436
l208 -208 -213 -212 -212 -213 -210 210 -210 210 209 211 c116 115 212 210
215 210 3 0 99 -94 213 -208z m3410 0 l207 -208 -212 -212 -213 -212 -210 210
-210 210 210 210 c115 115 212 210 215 210 3 0 99 -94 213 -208z m-1713 -7
l205 -205 -208 -208 -207 -207 -207 207 -207 207 205 205 c112 113 206 205
209 205 3 1 97 -91 210 -204z m-852 -1262 l-213 -213 -207 207 -207 206 212
213 212 212 208 -206 207 -207 -212 -212z m1705 409 l207 -207 -207 -208 -208
-207 -210 210 -210 210 205 205 c113 113 207 205 210 205 3 0 99 -93 213 -208z
m-733 -1149 c-52 -54 -148 -150 -213 -213 l-117 -114 -210 209 -210 210 212
212 213 213 210 -210 209 -209 -94 -98z"/>
<path d="M1620 7175 l-215 -215 430 -430 c236 -237 433 -430 438 -430 10 0
427 418 427 428 0 8 -852 862 -860 862 -3 0 -102 -97 -220 -215z"/>
<path d="M8226 6964 c-345 -345 -424 -429 -416 -442 5 -10 103 -111 218 -225
l208 -208 427 426 c235 235 427 432 427 439 0 11 -420 436 -431 436 -4 0 -198
-192 -433 -426z"/>
<path d="M1835 3980 l-430 -430 221 -221 222 -222 426 427 c234 234 426 430
426 434 0 4 -98 105 -218 225 l-217 217 -430 -430z"/>
<path d="M8022 4197 c-116 -116 -212 -217 -212 -222 0 -5 192 -202 427 -437
l427 -427 213 213 c117 117 213 217 213 222 0 5 -192 201 -428 437 l-427 427
-213 -213z"/>
<path d="M2268 2702 c-467 -466 -848 -852 -848 -857 0 -6 96 -106 213 -223
l212 -212 850 850 c468 468 852 853 855 856 4 5 -421 434 -430 434 -3 0 -386
-382 -852 -848z"/>
<path d="M7167 3342 c-114 -114 -207 -212 -207 -217 0 -6 383 -393 851 -861
l851 -851 209 209 c115 114 209 214 209 221 0 11 -1689 1707 -1700 1707 -3 0
-99 -93 -213 -208z"/>
<path d="M3541 2279 c-231 -232 -421 -427 -421 -433 0 -6 97 -108 215 -226
l214 -214 22 20 c80 71 829 828 829 838 0 11 -420 436 -431 436 -4 0 -196
-190 -428 -421z"/>
<path d="M6310 2485 l-215 -215 432 -432 432 -432 217 217 218 218 -430 429
c-236 237 -431 430 -434 430 -3 0 -102 -97 -220 -215z"/>
</g>
</svg>
