<svg id="main_logo" xmlns="http://www.w3.org/2000/svg" width="300" height="300" viewBox="0 0 300 300">
  <defs>
    <style>
      .cls-1 {
        fill: #060606;
      }

      .cls-1, .cls-2 {
        fill-rule: evenodd;
      }
    </style>
  </defs>
  <path id="Triangle_cut" class="cls-1" d="M184.8,257.98l-47.509-27.429,20.631-35.734,26.93,15.548V148.173l0.155-.268,41.107,23.733v62.49Zm0-215.96,41.314,23.853V110.8L145.888,64.485ZM134.156,118.9L80.3,150l26.929,15.548L86.6,201.282,39.087,173.853V126.147L93.2,94.9l41.107,23.733Z"/>
  <path id="T" class="cls-2" d="M252.317,180.007l-69.453-40.1-71.709,124.2L70.6,240.7l71.709-124.2-69.452-40.1L93.343,40.908,272.805,144.52Z"/>
  <path id="Triangle_upper_layer" class="cls-1" d="M226.1,65.864V234.136L184.8,257.98l-0.028-.016V210.319l0.08,0.046V89.635l-0.08.046V42.036l0.028-.016Z"/>
</svg>
