<?xml version="1.0" standalone="no"?>
<!DOCTYPE svg PUBLIC "-//W3C//DTD SVG 20010904//EN"
 "http://www.w3.org/TR/2001/REC-SVG-20010904/DTD/svg10.dtd">
<svg version="1.0" xmlns="http://www.w3.org/2000/svg"
 width="325.000000pt" height="325.000000pt" viewBox="0 0 325.000000 325.000000"
 preserveAspectRatio="xMidYMid meet">

<g transform="translate(0.000000,325.000000) scale(0.100000,-0.100000)"
fill="#000000" stroke="none">
<path d="M330 1925 l0 -785 80 0 80 0 0 705 0 705 925 0 925 0 0 80 0 80
-1005 0 -1005 0 0 -785z"/>
<path d="M600 1645 l0 -785 80 0 80 0 0 705 0 705 925 0 925 0 0 80 0 80
-1005 0 -1005 0 0 -785z"/>
<path d="M860 1355 l0 -815 1035 0 1035 0 0 815 0 815 -1035 0 -1035 0 0 -815z
m562 225 c27 -63 67 -157 87 -208 l38 -93 85 208 86 208 89 0 88 0 3 -337 2
-338 -76 0 -76 0 4 221 c3 185 2 217 -9 193 -7 -16 -33 -76 -57 -134 -24 -58
-56 -131 -70 -162 l-26 -58 -47 0 -48 0 -62 143 c-34 78 -72 168 -84 200 -12
31 -23 56 -24 55 -1 -2 1 -34 6 -73 4 -38 8 -141 8 -227 l1 -158 -75 0 -75 0
0 333 c0 184 3 337 7 341 4 4 45 5 91 4 l83 -3 51 -115z m1173 45 l0 -70 -277
-3 -278 -2 0 75 0 75 278 -2 277 -3 0 -70z m5 -265 l0 -70 -280 0 -280 0 0 70
0 70 280 0 280 0 0 -70z m0 -270 l0 -70 -280 0 -280 0 0 70 0 70 280 0 280 0
0 -70z"/>
</g>
</svg>
