<?xml version="1.0" standalone="no"?>
<!DOCTYPE svg PUBLIC "-//W3C//DTD SVG 20010904//EN"
 "http://www.w3.org/TR/2001/REC-SVG-20010904/DTD/svg10.dtd">
<svg version="1.0" xmlns="http://www.w3.org/2000/svg"
 width="900.000000pt" height="900.000000pt" viewBox="0 0 900.000000 900.000000"
 preserveAspectRatio="xMidYMid meet">

<g transform="translate(0.000000,900.000000) scale(0.100000,-0.100000)"
fill="#000000" stroke="none">
<path d="M1703 7945 c-319 -82 -568 -332 -649 -652 -34 -136 -34 -330 0 -466
31 -121 92 -245 166 -338 68 -85 105 -108 178 -109 97 0 142 44 142 140 0 62
-9 80 -69 140 -53 53 -114 167 -136 255 -19 76 -19 214 0 290 55 217 243 405
460 460 32 8 98 15 145 15 47 0 113 -7 145 -15 88 -22 202 -83 255 -136 60
-60 78 -69 140 -69 95 0 140 45 140 140 0 76 -27 119 -120 189 -102 77 -203
125 -326 156 -136 35 -337 35 -471 0z"/>
<path d="M6910 7959 c0 -3 -11 -4 -25 -1 -14 2 -25 0 -25 -4 0 -5 -15 -10 -34
-11 -66 -3 -306 -116 -306 -144 0 -5 -6 -9 -14 -9 -8 0 -21 -8 -28 -17 -7 -10
-22 -23 -33 -29 -38 -21 -61 -78 -60 -146 3 -106 34 -135 141 -133 60 1 114
23 114 45 0 32 236 159 298 160 12 0 22 3 22 8 0 8 192 10 200 2 3 -3 27 -11
55 -18 207 -54 393 -240 447 -447 7 -28 15 -52 18 -55 8 -8 6 -200 -2 -200 -5
0 -8 -10 -8 -22 -1 -65 -113 -273 -160 -298 -31 -17 -46 -60 -45 -125 2 -70
15 -100 53 -118 37 -18 139 -14 179 6 41 22 143 158 187 252 40 83 80 219 72
241 -3 8 -2 14 2 14 4 0 7 68 7 150 0 83 -3 150 -7 150 -4 0 -5 6 -2 14 7 19
-22 128 -57 210 -32 76 -114 205 -135 213 -8 3 -14 10 -14 17 0 14 -72 86 -86
86 -5 0 -15 9 -22 20 -7 11 -19 20 -27 20 -8 0 -15 4 -15 10 0 30 -289 160
-326 146 -8 -3 -14 0 -14 5 0 7 -11 9 -25 7 -14 -3 -25 -2 -25 1 0 3 -67 6
-150 6 -82 0 -150 -3 -150 -6z"/>
<path d="M1803 7368 c-61 -22 -131 -87 -164 -149 -21 -39 -23 -58 -23 -159 0
-101 3 -121 23 -160 28 -54 1726 -1760 1752 -1760 9 0 32 24 50 52 120 187
345 372 570 469 548 237 1201 41 1532 -459 29 -43 47 -62 59 -60 10 2 405 390
878 863 625 624 867 872 883 905 18 38 22 62 22 150 0 122 -18 170 -86 239
-62 61 -119 85 -218 89 -100 5 -147 -7 -221 -55 -31 -21 -312 -293 -657 -637
l-602 -600 -53 36 c-208 138 -488 242 -760 282 -141 21 -435 21 -576 0 -274
-40 -571 -152 -767 -288 l-50 -34 -630 628 c-585 583 -634 629 -685 647 -75
28 -205 28 -277 1z"/>
<path d="M3089 3583 c-840 -841 -1400 -1410 -1422 -1443 -48 -74 -60 -121 -55
-221 4 -99 28 -156 89 -218 69 -68 117 -86 239 -86 93 0 111 3 153 25 35 18
225 202 671 649 l623 624 59 -40 c185 -124 413 -217 664 -271 117 -25 141 -26
385 -27 230 0 273 3 370 22 259 53 514 155 690 277 l50 34 625 -622 c497 -495
635 -628 675 -647 43 -20 65 -23 155 -23 122 0 171 17 239 85 69 69 86 117 85
244 0 94 -4 117 -23 155 -31 60 -2836 2870 -2866 2870 -13 0 -484 -464 -1406
-1387z m2021 -184 c0 -9 -124 -65 -211 -95 -242 -85 -547 -86 -789 -4 -36 12
-103 40 -150 62 l-84 39 309 309 310 310 307 -307 c170 -170 308 -311 308
-314z"/>
<path d="M1308 2600 c-47 -25 -146 -156 -194 -257 -60 -127 -84 -242 -84 -403
0 -113 4 -155 24 -233 82 -321 332 -571 653 -653 136 -34 330 -34 466 0 121
31 245 92 338 166 85 68 108 105 109 178 0 97 -44 142 -140 142 -62 0 -80 -9
-140 -69 -53 -53 -167 -114 -255 -136 -76 -19 -214 -19 -290 0 -217 55 -405
243 -460 460 -8 32 -15 98 -15 145 0 47 7 113 15 145 22 88 83 202 136 255 60
60 69 78 69 140 0 62 -20 105 -60 125 -41 21 -127 18 -172 -5z"/>
<path d="M7518 2604 c-38 -20 -58 -63 -58 -124 0 -62 9 -80 69 -140 53 -53
114 -167 136 -255 8 -32 15 -98 15 -145 0 -47 -7 -113 -15 -145 -55 -217 -243
-405 -460 -460 -76 -19 -214 -19 -290 0 -88 22 -202 83 -255 136 -60 60 -78
69 -140 69 -96 0 -140 -45 -140 -142 1 -73 24 -110 109 -178 93 -74 217 -135
338 -166 136 -34 330 -34 466 0 321 82 571 332 653 653 20 78 24 120 24 233 0
161 -24 276 -84 403 -50 104 -147 232 -197 257 -46 24 -132 26 -171 4z"/>
</g>
</svg>
